<svg width="182" height="76" viewBox="0 0 182 76" fill="none" xmlns="http://www.w3.org/2000/svg">
<path d="M21.139 46.3153V64.9736H18.6853V51.0607L12.4839 64.9736H10.7582L4.52978 51.0338V64.9736H2.07615V46.3153H4.71852L11.621 61.7381L18.5236 46.3153H21.139ZM31.7443 65.2163C30.3602 65.2163 29.1019 64.9017 27.9694 64.2726C26.855 63.6435 25.9742 62.7537 25.3271 61.6033C24.6979 60.4349 24.3834 59.0867 24.3834 57.5588C24.3834 56.0489 24.7069 54.7187 25.354 53.5683C26.0191 52.3999 26.9179 51.5101 28.0503 50.899C29.1828 50.2698 30.45 49.9553 31.8521 49.9553C33.2542 49.9553 34.5214 50.2698 35.6539 50.899C36.7863 51.5101 37.6761 52.3909 38.3232 53.5413C38.9883 54.6918 39.3209 56.0309 39.3209 57.5588C39.3209 59.0867 38.9793 60.4349 38.2963 61.6033C37.6312 62.7537 36.7234 63.6435 35.573 64.2726C34.4226 64.9017 33.1463 65.2163 31.7443 65.2163ZM31.7443 63.0593C32.625 63.0593 33.4519 62.8525 34.2249 62.4391C34.9978 62.0257 35.6179 61.4055 36.0853 60.5787C36.5706 59.7518 36.8133 58.7452 36.8133 57.5588C36.8133 56.3724 36.5796 55.3658 36.1123 54.539C35.6449 53.7121 35.0337 53.1009 34.2788 52.7055C33.5238 52.2921 32.7059 52.0853 31.8251 52.0853C30.9264 52.0853 30.0995 52.2921 29.3446 52.7055C28.6076 53.1009 28.0144 53.7121 27.565 54.539C27.1156 55.3658 26.8909 56.3724 26.8909 57.5588C26.8909 58.7632 27.1066 59.7788 27.538 60.6056C27.9874 61.4325 28.5806 62.0526 29.3176 62.4661C30.0546 62.8615 30.8635 63.0593 31.7443 63.0593ZM49.746 49.9283C51.5436 49.9283 52.9996 50.4765 54.114 51.573C55.2285 52.6516 55.7857 54.2154 55.7857 56.2646V64.9736H53.3591V56.6151C53.3591 55.1411 52.9906 54.0177 52.2536 53.2447C51.5166 52.4538 50.51 52.0584 49.2337 52.0584C47.9395 52.0584 46.9059 52.4628 46.133 53.2717C45.378 54.0806 45.0006 55.258 45.0006 56.8039V64.9736H42.5469V50.1979H45.0006V52.301C45.4859 51.5461 46.142 50.9619 46.9689 50.5484C47.8137 50.135 48.7394 49.9283 49.746 49.9283ZM73.2752 57.0196C73.2752 57.4869 73.2483 57.9812 73.1943 58.5025H61.3846C61.4744 59.9585 61.9688 61.1 62.8675 61.9268C63.7843 62.7357 64.8897 63.1402 66.184 63.1402C67.2445 63.1402 68.1253 62.8975 68.8263 62.4122C69.5454 61.9088 70.0487 61.2438 70.3363 60.4169H72.9786C72.5832 61.8369 71.7923 62.9963 70.6059 63.8951C69.4195 64.7759 67.9455 65.2163 66.184 65.2163C64.7819 65.2163 63.5236 64.9017 62.4092 64.2726C61.3127 63.6435 60.4498 62.7537 59.8207 61.6033C59.1916 60.4349 58.877 59.0867 58.877 57.5588C58.877 56.0309 59.1826 54.6918 59.7937 53.5413C60.4049 52.3909 61.2587 51.5101 62.3552 50.899C63.4697 50.2698 64.7459 49.9553 66.184 49.9553C67.586 49.9553 68.8263 50.2608 69.9049 50.872C70.9834 51.4832 71.8102 52.328 72.3855 53.4065C72.9786 54.4671 73.2752 55.6714 73.2752 57.0196ZM70.7407 56.5073C70.7407 55.5725 70.534 54.7726 70.1206 54.1076C69.7071 53.4245 69.1409 52.9122 68.4219 52.5707C67.7209 52.2112 66.9389 52.0314 66.0761 52.0314C64.8358 52.0314 63.7753 52.4269 62.8945 53.2178C62.0317 54.0087 61.5374 55.1052 61.4115 56.5073H70.7407ZM89.2405 50.1979L80.3427 71.9301H77.8082L80.7202 64.8119L74.7614 50.1979H77.4846L82.1222 62.1695L86.7059 50.1979H89.2405ZM113.132 51.627C112.61 50.5305 111.856 49.6856 110.867 49.0924C109.878 48.4813 108.728 48.1757 107.416 48.1757C106.103 48.1757 104.917 48.4813 103.856 49.0924C102.814 49.6856 101.987 50.5484 101.376 51.6809C100.783 52.7954 100.486 54.0896 100.486 55.5636C100.486 57.0375 100.783 58.3318 101.376 59.4462C101.987 60.5607 102.814 61.4235 103.856 62.0347C104.917 62.6279 106.103 62.9244 107.416 62.9244C109.249 62.9244 110.759 62.3762 111.945 61.2797C113.132 60.1832 113.824 58.7002 114.022 56.8308H106.526V54.8356H116.637V56.723C116.493 58.2688 116.008 59.6889 115.181 60.9831C114.354 62.2594 113.267 63.275 111.918 64.0299C110.57 64.7669 109.069 65.1354 107.416 65.1354C105.672 65.1354 104.081 64.731 102.643 63.9221C101.205 63.0952 100.064 61.9538 99.2189 60.4978C98.392 59.0418 97.9786 57.397 97.9786 55.5636C97.9786 53.7301 98.392 52.0853 99.2189 50.6293C100.064 49.1554 101.205 48.0139 102.643 47.205C104.081 46.3782 105.672 45.9647 107.416 45.9647C109.411 45.9647 111.172 46.4591 112.7 47.4477C114.246 48.4363 115.37 49.8294 116.071 51.627H113.132ZM132.985 50.1979V64.9736H130.532V62.7896C130.064 63.5446 129.408 64.1378 128.563 64.5692C127.736 64.9826 126.82 65.1893 125.813 65.1893C124.663 65.1893 123.629 64.9557 122.712 64.4883C121.796 64.003 121.068 63.284 120.528 62.3313C120.007 61.3786 119.746 60.2192 119.746 58.853V50.1979H122.173V58.5295C122.173 59.9855 122.541 61.1089 123.278 61.8999C124.015 62.6728 125.022 63.0593 126.298 63.0593C127.611 63.0593 128.644 62.6548 129.399 61.8459C130.154 61.037 130.532 59.8597 130.532 58.3138V50.1979H132.985ZM136.211 57.5319C136.211 56.0219 136.517 54.7007 137.128 53.5683C137.739 52.4179 138.575 51.5281 139.636 50.899C140.714 50.2698 141.909 49.9553 143.222 49.9553C144.516 49.9553 145.639 50.2339 146.592 50.7911C147.545 51.3483 148.255 52.0494 148.722 52.8942V50.1979H151.203V64.9736H148.722V62.2234C148.237 63.0862 147.509 63.8052 146.538 64.3804C145.585 64.9377 144.471 65.2163 143.195 65.2163C141.882 65.2163 140.696 64.8927 139.636 64.2456C138.575 63.5985 137.739 62.6908 137.128 61.5224C136.517 60.354 136.211 59.0238 136.211 57.5319ZM148.722 57.5588C148.722 56.4443 148.497 55.4737 148.048 54.6468C147.599 53.82 146.987 53.1908 146.214 52.7594C145.46 52.31 144.624 52.0853 143.707 52.0853C142.79 52.0853 141.954 52.301 141.199 52.7324C140.444 53.1639 139.842 53.793 139.393 54.6199C138.943 55.4467 138.719 56.4174 138.719 57.5319C138.719 58.6643 138.943 59.6529 139.393 60.4978C139.842 61.3246 140.444 61.9628 141.199 62.4122C141.954 62.8436 142.79 63.0593 143.707 63.0593C144.624 63.0593 145.46 62.8436 146.214 62.4122C146.987 61.9628 147.599 61.3246 148.048 60.4978C148.497 59.6529 148.722 58.6733 148.722 57.5588ZM157.803 52.5976C158.234 51.7528 158.845 51.0967 159.636 50.6293C160.445 50.162 161.425 49.9283 162.575 49.9283V52.4628H161.928C159.178 52.4628 157.803 53.9548 157.803 56.9387V64.9736H155.349V50.1979H157.803V52.5976ZM164.491 57.5319C164.491 56.0219 164.796 54.7007 165.407 53.5683C166.019 52.4179 166.854 51.5281 167.915 50.899C168.994 50.2698 170.198 49.9553 171.528 49.9553C172.678 49.9553 173.748 50.2249 174.737 50.7641C175.725 51.2854 176.48 51.9775 177.002 52.8403V45.021H179.482V64.9736H177.002V62.1964C176.516 63.0772 175.797 63.8052 174.845 64.3804C173.892 64.9377 172.777 65.2163 171.501 65.2163C170.189 65.2163 168.994 64.8927 167.915 64.2456C166.854 63.5985 166.019 62.6908 165.407 61.5224C164.796 60.354 164.491 59.0238 164.491 57.5319ZM177.002 57.5588C177.002 56.4443 176.777 55.4737 176.327 54.6468C175.878 53.82 175.267 53.1908 174.494 52.7594C173.739 52.31 172.903 52.0853 171.986 52.0853C171.07 52.0853 170.234 52.301 169.479 52.7324C168.724 53.1639 168.122 53.793 167.672 54.6199C167.223 55.4467 166.998 56.4174 166.998 57.5319C166.998 58.6643 167.223 59.6529 167.672 60.4978C168.122 61.3246 168.724 61.9628 169.479 62.4122C170.234 62.8436 171.07 63.0593 171.986 63.0593C172.903 63.0593 173.739 62.8436 174.494 62.4122C175.267 61.9628 175.878 61.3246 176.327 60.4978C176.777 59.6529 177.002 58.6733 177.002 57.5588Z" fill="#FBFBFB"/>
<g clip-path="url(#clip0_30_2214)">
<path fill-rule="evenodd" clip-rule="evenodd" d="M97.6828 4.94514C95.1371 4.30829 92.5913 3.03458 90.682 1.12402C88.7727 3.03458 86.2269 4.30829 83.6812 4.94514C84.3176 10.6768 86.2269 14.4979 90.682 17.6822C95.1371 14.4979 97.6828 10.6768 97.6828 4.94514Z" fill="#FFC727"/>
<path fill-rule="evenodd" clip-rule="evenodd" d="M95.1365 28.6578L77.3162 7.6416V17.8313L91.3179 33.7526L95.1365 28.6578Z" fill="#FBFBFB"/>
<path fill-rule="evenodd" clip-rule="evenodd" d="M97.0461 26.7476L104.683 17.8316V8.27881L92.5911 22.2896L97.0461 26.7476Z" fill="#FBFBFB"/>
<path fill-rule="evenodd" clip-rule="evenodd" d="M97.6826 29.9319V35.6636L104.683 27.3845V21.6528L97.6826 29.9319Z" fill="#FBFBFB"/>
<path fill-rule="evenodd" clip-rule="evenodd" d="M84.317 29.9319L77.3162 21.6528V27.3845L84.317 35.6636V29.9319Z" fill="#FBFBFB"/>
</g>
<defs>
<clipPath id="clip0_30_2214">
<rect width="35.9506" height="35.9739" fill="white" transform="translate(73.0249)"/>
</clipPath>
</defs>
</svg>
